<svg width="59" height="60" viewBox="0 0 59 60" fill="none" xmlns="http://www.w3.org/2000/svg">
<path d="M54.0834 42.3V49.8C54.0862 50.4963 53.9459 51.1854 53.6716 51.8234C53.3974 52.4613 52.9951 53.034 52.4906 53.5047C51.9861 53.9754 51.3905 54.3337 50.7419 54.5568C50.0933 54.7798 49.4061 54.8627 48.7242 54.8C41.1595 53.9641 33.8931 51.3354 27.5088 47.125C21.5691 43.2867 16.5332 38.1654 12.7588 32.125C8.60417 25.603 6.01866 18.1775 5.21173 10.45C5.15029 9.75867 5.23109 9.0619 5.44896 8.40406C5.66683 7.74622 6.017 7.14172 6.47719 6.62905C6.93738 6.11638 7.4975 5.70677 8.12188 5.4263C8.74626 5.14583 9.42123 5.00065 10.1038 5H17.4788C18.6719 4.98806 19.8285 5.41769 20.7331 6.20883C21.6376 6.99997 22.2285 8.09861 22.3955 9.3C22.7068 11.7002 23.284 14.0568 24.1163 16.325C24.4471 17.2198 24.5186 18.1923 24.3226 19.1272C24.1265 20.0621 23.671 20.9203 23.0101 21.6L19.888 24.775C23.3876 31.0339 28.4834 36.2161 34.638 39.775L37.7601 36.6C38.4285 35.9278 39.2723 35.4646 40.1916 35.2652C41.111 35.0658 42.0672 35.1386 42.9471 35.475C45.1775 36.3214 47.4949 36.9084 49.8551 37.225C51.0492 37.3963 52.1398 38.008 52.9195 38.9437C53.6991 39.8795 54.1133 41.0739 54.0834 42.3Z" stroke="url(#paint0_linear_1_12)" stroke-width="3" stroke-linecap="round" stroke-linejoin="round"/>
<defs>
<linearGradient id="paint0_linear_1_12" x1="5.19177" y1="29.91" x2="54.0849" y2="29.91" gradientUnits="userSpaceOnUse">
<stop stop-color="#3BA17B"/>
<stop offset="1" stop-color="#1B5469"/>
</linearGradient>
</defs>
</svg>
