<svg width="149" height="50" viewBox="0 0 149 50" fill="none" xmlns="http://www.w3.org/2000/svg">
<path fill-rule="evenodd" clip-rule="evenodd" d="M41.0284 31.3947C45.4665 32.2002 49.407 33.4998 52.4695 35.1539C52.4935 35.1673 52.5148 35.1861 52.5307 35.2076C52.6132 35.3123 52.5972 35.4653 52.4935 35.5513C51.6021 36.1957 50.6762 36.7891 49.7157 37.3235C47.8186 38.3653 45.8257 39.2165 43.7636 39.8636C43.7636 39.8878 43.7636 39.9119 43.7397 39.9119C41.6217 45.9535 35.9624 49.9946 29.6112 50H29.2307C22.4991 49.9866 16.4539 45.8407 13.9662 39.528C13.8837 39.5763 13.7826 39.5763 13.7001 39.528C11.9813 38.9292 10.3156 38.1908 8.71388 37.3235C7.82254 36.8213 6.9578 36.2736 6.12233 35.6801C6.08508 35.6506 6.05315 35.613 6.02921 35.5727C5.92278 35.3848 5.98397 35.1458 6.17023 35.0357C8.27486 33.9509 10.4886 33.0917 12.7715 32.4714V31.6095C10.1267 32.3103 7.57775 33.3333 5.17511 34.6517C5.03676 34.7215 4.86913 34.7028 4.7494 34.6034C1.66295 31.9532 0 28.8035 0 25.5223C0 22.241 1.63901 19.1477 4.65095 16.4894H4.6749C6.8833 17.832 9.63715 18.9571 12.7715 19.819V18.9571C10.3742 18.3046 8.05402 17.389 5.8536 16.2263C5.80571 16.1995 5.76313 16.1672 5.72855 16.1243C5.59285 15.9578 5.61945 15.7108 5.78442 15.5738C6.71567 14.8784 7.69216 14.25 8.71122 13.6942C10.0203 12.9773 11.3773 12.349 12.7715 11.8146V7.86478C12.7688 6.45239 11.6407 5.30852 10.2411 5.30047H8.22165C7.83584 5.29241 7.5272 4.97019 7.53518 4.58085V0.719618C7.53784 0.322217 7.85447 0 8.24825 0H28.7545C29.1376 0.0161108 29.4383 0.338328 29.433 0.724988V4.59428C29.4356 4.98094 29.127 5.29778 28.7438 5.30047H26.7031C25.3009 5.30315 24.1621 6.44971 24.1621 7.86478V10.9097C25.5217 9.92696 27.1234 9.34429 28.7917 9.23151V20.7776C28.7891 20.9495 28.6534 21.0891 28.4831 21.0891C27.0356 21.0649 25.5856 20.9951 24.1621 20.8984V21.7362C25.5616 21.8329 26.9878 21.9054 28.4352 21.9054C28.6374 21.9134 28.797 22.0826 28.7917 22.2867V29.1472C28.797 29.3513 28.6374 29.5231 28.4352 29.5312C26.9878 29.5553 25.5616 29.6037 24.1621 29.7245V30.53C25.5696 30.4334 26.9957 30.3636 28.4192 30.3636H28.4272C28.6347 30.3663 28.7997 30.5354 28.7997 30.7449V41.3887C28.7864 41.6009 28.6055 41.7593 28.3979 41.7459C27.331 41.6331 26.2906 41.3243 25.3328 40.8356C26.7483 43.1126 29.2228 44.4981 31.8861 44.5008H32.3624C34.8874 44.5035 37.2555 43.2603 38.7003 41.1713C37.181 41.4586 35.5899 41.6734 33.9748 41.8425C33.887 41.8479 33.8045 41.8023 33.7566 41.7271C33.6848 41.6116 33.7194 41.4586 33.8338 41.3861C37.016 39.5897 39.5304 36.0185 40.765 31.5638V31.5558C40.7943 31.4376 40.9113 31.3651 41.0284 31.3947ZM22.7439 36.6871V7.86478C22.7466 6.38258 23.5687 5.0239 24.8725 4.34187H23.2335C20.7776 4.34187 18.7688 6.32082 18.7102 8.7992V35.6345C18.7102 42.0788 23.8853 47.3014 30.2711 47.3014H30.5079C34.9513 47.3149 39.0009 44.7371 40.9087 40.6879C40.8225 40.7097 40.7169 40.7314 40.6113 40.7532L40.5761 40.7604C40.5669 40.7789 40.5613 40.7938 40.5565 40.8066C40.5486 40.8272 40.543 40.8422 40.5282 40.8571C38.9823 43.9772 35.8187 45.9454 32.3624 45.9374H31.8861C26.8334 45.924 22.7439 41.7862 22.7439 36.6871ZM8.92674 1.44192V3.7592H13.6282C15.7941 3.7592 17.7204 5.14473 18.4309 7.2096C19.1306 5.14473 21.057 3.7592 23.2202 3.7592H28.0387V1.44192H8.92674ZM29.2254 48.5634H29.6059V48.5715C34.9939 48.5742 39.8737 45.3574 42.0368 40.3765C41.9064 40.4302 41.7734 40.4704 41.6351 40.4973C39.738 44.9868 35.3584 47.8948 30.5212 47.8761H30.2844C23.5847 47.8734 18.1568 42.3957 18.1515 35.6345V8.7992C18.0929 6.32082 16.0841 4.34187 13.6282 4.34187H12.085C13.3835 5.02658 14.1976 6.38526 14.1976 7.86478V33.3978C14.2083 41.77 20.9293 48.5527 29.2254 48.5634Z" fill="white"/>
<path fill-rule="evenodd" clip-rule="evenodd" d="M49.7149 13.6942C50.7659 14.2715 51.7743 14.9267 52.7321 15.6517C52.7641 15.6758 52.788 15.7081 52.8066 15.743C52.8838 15.8907 52.8279 16.0759 52.6816 16.1538C49.6457 17.8642 45.6785 19.1719 41.1926 20.0123C41.0303 20.0392 40.8733 19.9345 40.836 19.7707C39.7052 15.316 37.2281 11.683 34.1177 9.80344C34.0113 9.74169 33.9501 9.62086 33.966 9.49734C33.9873 9.32818 34.139 9.20734 34.3066 9.22882C36.2542 9.41947 38.1859 9.72289 40.099 10.1391V7.86477C40.0884 6.44434 38.9442 5.30047 37.5367 5.30047H35.4214C35.0356 5.29241 34.727 4.97019 34.735 4.58085V0.719617C34.735 0.322217 35.0516 0 35.4454 0H49.1934C49.5792 0.0107406 49.8878 0.332957 49.8825 0.724988V4.59427C49.8851 4.98093 49.5765 5.29778 49.1934 5.30047H47.1286C45.7264 5.30315 44.5876 6.44971 44.5876 7.86477V11.4172C46.357 12.0321 48.0705 12.7947 49.7149 13.6942ZM42.0137 10.6178C42.0493 10.6266 42.0842 10.6352 42.1185 10.6439V7.64728C42.0759 6.13017 41.0356 4.82788 39.5775 4.4627C40.7722 5.17158 41.5012 6.46582 41.5012 7.86477V10.4747C41.676 10.5343 41.8507 10.5775 42.0137 10.6178ZM36.1345 3.7592H38.7473C40.3597 3.75114 41.8098 4.73927 42.4058 6.25101C43.0178 4.74464 44.4706 3.7592 46.0856 3.7592H48.4803V1.44192H36.1345V3.7592ZM43.1854 10.9554V9.22882C43.1721 9.22882 43.1615 9.20734 43.1615 9.20734V7.86477C43.1642 6.51683 43.8426 5.26287 44.9655 4.53252C43.7309 4.97556 42.8528 6.09258 42.7118 7.4083V10.8104C42.8555 10.8587 43.0205 10.907 43.1854 10.9554Z" fill="white"/>
<path d="M30.0101 30.3624C33.2056 30.3973 36.3958 30.6604 39.5568 31.1491V31.1518L39.5634 31.1531C39.5752 31.1555 39.5886 31.1581 39.602 31.1626C39.8042 31.2216 39.9213 31.4338 39.8627 31.6378C38.2503 37.2444 34.4987 41.3017 30.05 41.7555H30.0127C29.8025 41.7555 29.6269 41.5863 29.6269 41.3715V30.7437C29.6296 30.5316 29.7999 30.3624 30.0101 30.3624Z" fill="white"/>
<path d="M29.901 21.0808C33.3094 21.0539 36.7124 20.7639 40.0756 20.2108C38.567 14.0001 34.4881 9.47022 29.6269 9.2393V20.8096C29.6269 20.9573 29.7466 21.0781 29.893 21.0781H29.901V21.0808Z" fill="white"/>
<path d="M54.0603 16.7479C53.8874 16.5948 53.6373 16.5706 53.4404 16.6888C50.3433 18.4825 46.2564 19.8787 41.6082 20.7756C41.3208 20.8319 41.1319 21.1085 41.1851 21.3985C41.6933 24.2501 41.6693 27.1716 41.1159 30.0151C41.0574 30.3051 41.241 30.5897 41.5283 30.6488H41.5363C46.0595 31.5215 50.0799 32.8614 53.1584 34.5879C53.3526 34.698 53.5921 34.6765 53.7623 34.5315C56.8062 31.8813 58.4372 28.7746 58.4372 25.5095C58.4372 22.2443 56.9126 19.3336 54.0603 16.7452V16.7479Z" fill="white"/>
<path d="M39.8206 30.3419C36.5718 29.8317 33.2885 29.5605 29.9998 29.5364L30.0132 29.5256C29.8083 29.5256 29.6407 29.3565 29.6407 29.1497V22.2865C29.6433 22.0797 29.8083 21.9132 30.0132 21.9106C33.3284 21.8783 36.6357 21.6018 39.9111 21.0782C40.1026 21.0513 40.2836 21.1775 40.3288 21.3682C40.8583 24.2386 40.8317 27.1842 40.2516 30.0439C40.2091 30.2426 40.0201 30.3714 39.8206 30.3419Z" fill="white"/>
<path d="M146.416 18.5039L149 17.8809L148.894 16.1947H140.148L140.039 17.7977L142.327 18.5281V24.0165H134.818V18.5039L137.319 17.8809L137.213 16.1947H128.414L128.302 17.7735L130.729 18.5281V32.5499L128.252 33.3339L128.361 34.8832H137.213L137.319 33.1433L134.818 32.5176V26.2156H142.327V32.5499L139.93 33.3071L140.092 34.8832H148.918L149 33.1433L146.416 32.5176V18.5039Z" fill="white"/>
<path fill-rule="evenodd" clip-rule="evenodd" d="M82.4806 16.1647C84.2122 16.1394 88.6721 16.0744 89.3179 20.4078C90.007 25.0692 87.1813 26.9595 84.7095 27.561C82.5969 28.0631 80.3885 27.6791 79.8191 27.561V32.5338L82.4798 33.1568L82.3867 34.8807C82.3867 34.8807 79.4147 34.7357 77.8502 34.7357C76.2857 34.7357 73.4121 34.8807 73.4121 34.8807L73.3402 33.1568L75.7854 32.5795V18.4932C75.0298 18.3321 74.2901 18.0985 73.577 17.7978L74.0294 16.0229C76.374 16.6341 78.9721 16.4114 80.7285 16.2608C81.318 16.2103 81.8128 16.1679 82.1712 16.1679C82.2608 16.1679 82.3646 16.1664 82.4806 16.1647ZM79.8218 18.8369V25.1631C84.047 25.8828 85.1645 23.7534 85.1645 21.9302C85.1645 20.107 84.0949 18.4315 80.2501 18.7913C80.1744 18.804 80.0987 18.8101 80.0234 18.816C79.9558 18.8214 79.8885 18.8268 79.8218 18.8369Z" fill="white"/>
<path d="M107.866 16.3991C107.874 16.3346 107.831 16.2755 107.767 16.2648H107.741C105.413 16.4125 103.076 16.3991 100.748 16.2218L100.639 17.849L102.874 18.5069C102.874 18.5069 101.123 23.4288 99.873 26.6858L99.8331 26.0656C99.8331 26.0656 98.0105 21.6431 97.2388 19.6024C96.4672 17.5617 96.3236 17.0086 96.2836 16.1816C96.2836 16.1816 94.0406 16.5038 90.281 16.1816L90.0895 17.8114L92.1648 18.5445L96.7945 29.2179H98.947C98.947 29.2179 97.9519 32.6012 96.3102 32.8563L93.3489 30.9767C93.3489 30.9767 91.5928 31.5379 91.6513 33.3933C91.7098 35.2487 95.8845 36.7363 98.3351 34.0136C100.026 32.1361 102.163 26.8068 103.539 23.3745C104.068 22.055 104.485 21.0159 104.721 20.561C105.213 19.6373 106.232 18.3592 107.648 17.9511L107.866 16.3991Z" fill="white"/>
<path fill-rule="evenodd" clip-rule="evenodd" d="M123.461 32.2323C124.527 32.3022 125.525 32.423 125.882 32.4713C125.964 32.4928 126.023 32.5707 126.017 32.6566L125.448 39.8447H123.288L122.489 34.8853H109.478L108.22 39.8447H106.32L105.988 32.5948C105.99 32.5116 106.051 32.4445 106.131 32.4284C106.416 32.3747 107.153 32.2538 108.292 32.1598C110.045 30.342 110.708 28.6665 111.397 26.223C112.086 23.7795 111.966 19.0832 111.966 19.0832C111.272 18.4791 110.442 18.0575 109.545 17.8615C109.534 17.8615 109.524 17.8588 109.513 17.8561C109.444 17.8346 109.404 17.7621 109.425 17.6923L109.497 16.4222C109.508 16.3121 109.601 16.2289 109.71 16.2316C110.732 16.2316 115.433 16.2316 119.23 16.2799C123.532 16.3283 125.882 16.1108 125.882 16.1108L125.93 17.8803L123.461 18.4791V32.2323ZM115.329 32.2213C117.318 32.3248 118.407 32.3815 119.4 32.3263V18.6455L114.318 18.6939C114.318 18.6939 114.534 21.2582 113.962 25.4738C113.653 27.818 112.844 30.0654 111.588 32.0632C112.091 32.0632 112.623 32.0873 113.156 32.1115C113.986 32.1514 114.702 32.1887 115.329 32.2213Z" fill="white"/>
</svg>
